<svg xmlns="http://www.w3.org/2000/svg" width="1500" height="500" viewBox="0 0 1500 500" role="img" aria-label="Josh Vaughen"><rect width="1500" height="500" fill="#17191c"/><g opacity="0.1"><rect x="-10" y="-40" width="50" height="50" rx="10" fill="#f4f7fb"/><rect x="-10" y="20" width="50" height="50" rx="10" fill="#4a4f56"/><rect x="-10" y="80" width="50" height="50" rx="10" fill="#a8adb5"/><rect x="-10" y="140" width="50" height="50" rx="10" fill="#4a4f56"/><rect x="-10" y="200" width="50" height="50" rx="10" fill="#f4f7fb"/><rect x="-10" y="260" width="50" height="50" rx="10" fill="#f4f7fb"/><rect x="-10" y="320" width="50" height="50" rx="10" fill="#767b82"/><rect x="-10" y="380" width="50" height="50" rx="10" fill="#a8adb5"/><rect x="-10" y="440" width="50" height="50" rx="10" fill="#767b82"/><rect x="50" y="-40" width="50" height="50" rx="10" fill="#4a4f56"/><rect x="50" y="20" width="50" height="50" rx="10" fill="#f4f7fb"/><rect x="50" y="80" width="50" height="50" rx="10" fill="#f4f7fb"/><rect x="50" y="140" width="50" height="50" rx="10" fill="#4a4f56"/><rect x="50" y="200" width="50" height="50" rx="10" fill="#767b82"/><rect x="50" y="260" width="50" height="50" rx="10" fill="#767b82"/><rect x="50" y="320" width="50" height="50" rx="10" fill="#767b82"/><rect x="50" y="380" width="50" height="50" rx="10" fill="#f4f7fb"/><rect x="50" y="440" width="50" height="50" rx="10" fill="#a8adb5"/><rect x="110" y="-40" width="50" height="50" rx="10" fill="#a8adb5"/><rect x="110" y="20" width="50" height="50" rx="10" fill="#767b82"/><rect x="110" y="80" width="50" height="50" rx="10" fill="#f4f7fb"/><rect x="110" y="140" width="50" height="50" rx="10" fill="#f4f7fb"/><rect x="110" y="200" width="50" height="50" rx="10" fill="#4a4f56"/><rect x="110" y="260" width="50" height="50" rx="10" fill="#f4f7fb"/><rect x="110" y="320" width="50" height="50" rx="10" fill="#f4f7fb"/><rect x="110" y="380" width="50" height="50" rx="10" fill="#767b82"/><rect x="110" y="440" width="50" height="50" rx="10" fill="#767b82"/><rect x="170" y="-40" width="50" height="50" rx="10" fill="#f4f7fb"/><rect x="170" y="20" width="50" height="50" rx="10" fill="#f4f7fb"/><rect x="170" y="80" width="50" height="50" rx="10" fill="#4a4f56"/><rect x="170" y="140" width="50" height="50" rx="10" fill="#767b82"/><rect x="170" y="200" width="50" height="50" rx="10" fill="#4a4f56"/><rect x="170" y="260" width="50" height="50" rx="10" fill="#a8adb5"/><rect x="170" y="320" width="50" height="50" rx="10" fill="#a8adb5"/><rect x="170" y="380" width="50" height="50" rx="10" fill="#4a4f56"/><rect x="170" y="440" width="50" height="50" rx="10" fill="#4a4f56"/><rect x="230" y="-40" width="50" height="50" rx="10" fill="#a8adb5"/><rect x="230" y="20" width="50" height="50" rx="10" fill="#4a4f56"/><rect x="230" y="80" width="50" height="50" rx="10" fill="#f4f7fb"/><rect x="230" y="140" width="50" height="50" rx="10" fill="#a8adb5"/><rect x="230" y="200" width="50" height="50" rx="10" fill="#f4f7fb"/><rect x="230" y="260" width="50" height="50" rx="10" fill="#767b82"/><rect x="230" y="320" width="50" height="50" rx="10" fill="#767b82"/><rect x="230" y="380" width="50" height="50" rx="10" fill="#f4f7fb"/><rect x="230" y="440" width="50" height="50" rx="10" fill="#a8adb5"/><rect x="290" y="-40" width="50" height="50" rx="10" fill="#767b82"/><rect x="290" y="20" width="50" height="50" rx="10" fill="#a8adb5"/><rect x="290" y="80" width="50" height="50" rx="10" fill="#767b82"/><rect x="290" y="140" width="50" height="50" rx="10" fill="#767b82"/><rect x="290" y="200" width="50" height="50" rx="10" fill="#4a4f56"/><rect x="290" y="260" width="50" height="50" rx="10" fill="#a8adb5"/><rect x="290" y="320" width="50" height="50" rx="10" fill="#f4f7fb"/><rect x="290" y="380" width="50" height="50" rx="10" fill="#767b82"/><rect x="290" y="440" width="50" height="50" rx="10" fill="#f4f7fb"/><rect x="350" y="-40" width="50" height="50" rx="10" fill="#f4f7fb"/><rect x="350" y="20" width="50" height="50" rx="10" fill="#f4f7fb"/><rect x="350" y="80" width="50" height="50" rx="10" fill="#767b82"/><rect x="350" y="140" width="50" height="50" rx="10" fill="#4a4f56"/><rect x="350" y="200" width="50" height="50" rx="10" fill="#a8adb5"/><rect x="350" y="260" width="50" height="50" rx="10" fill="#f4f7fb"/><rect x="350" y="320" width="50" height="50" rx="10" fill="#4a4f56"/><rect x="350" y="380" width="50" height="50" rx="10" fill="#767b82"/><rect x="350" y="440" width="50" height="50" rx="10" fill="#f4f7fb"/><rect x="410" y="-40" width="50" height="50" rx="10" fill="#4a4f56"/><rect x="410" y="20" width="50" height="50" rx="10" fill="#a8adb5"/><rect x="410" y="80" width="50" height="50" rx="10" fill="#f4f7fb"/><rect x="410" y="140" width="50" height="50" rx="10" fill="#767b82"/><rect x="410" y="200" width="50" height="50" rx="10" fill="#f4f7fb"/><rect x="410" y="260" width="50" height="50" rx="10" fill="#f4f7fb"/><rect x="410" y="320" width="50" height="50" rx="10" fill="#4a4f56"/><rect x="410" y="380" width="50" height="50" rx="10" fill="#f4f7fb"/><rect x="410" y="440" width="50" height="50" rx="10" fill="#767b82"/><rect x="470" y="-40" width="50" height="50" rx="10" fill="#a8adb5"/><rect x="470" y="20" width="50" height="50" rx="10" fill="#f4f7fb"/><rect x="470" y="80" width="50" height="50" rx="10" fill="#a8adb5"/><rect x="470" y="140" width="50" height="50" rx="10" fill="#767b82"/><rect x="470" y="200" width="50" height="50" rx="10" fill="#767b82"/><rect x="470" y="260" width="50" height="50" rx="10" fill="#767b82"/><rect x="470" y="320" width="50" height="50" rx="10" fill="#4a4f56"/><rect x="470" y="380" width="50" height="50" rx="10" fill="#767b82"/><rect x="470" y="440" width="50" height="50" rx="10" fill="#a8adb5"/><rect x="530" y="-40" width="50" height="50" rx="10" fill="#4a4f56"/><rect x="530" y="20" width="50" height="50" rx="10" fill="#a8adb5"/><rect x="530" y="80" width="50" height="50" rx="10" fill="#4a4f56"/><rect x="530" y="140" width="50" height="50" rx="10" fill="#4a4f56"/><rect x="530" y="200" width="50" height="50" rx="10" fill="#f4f7fb"/><rect x="530" y="260" width="50" height="50" rx="10" fill="#a8adb5"/><rect x="530" y="320" width="50" height="50" rx="10" fill="#4a4f56"/><rect x="530" y="380" width="50" height="50" rx="10" fill="#f4f7fb"/><rect x="530" y="440" width="50" height="50" rx="10" fill="#4a4f56"/><rect x="590" y="-40" width="50" height="50" rx="10" fill="#a8adb5"/><rect x="590" y="20" width="50" height="50" rx="10" fill="#f4f7fb"/><rect x="590" y="80" width="50" height="50" rx="10" fill="#f4f7fb"/><rect x="590" y="140" width="50" height="50" rx="10" fill="#f4f7fb"/><rect x="590" y="200" width="50" height="50" rx="10" fill="#767b82"/><rect x="590" y="260" width="50" height="50" rx="10" fill="#a8adb5"/><rect x="590" y="320" width="50" height="50" rx="10" fill="#a8adb5"/><rect x="590" y="380" width="50" height="50" rx="10" fill="#a8adb5"/><rect x="590" y="440" width="50" height="50" rx="10" fill="#767b82"/><rect x="650" y="-40" width="50" height="50" rx="10" fill="#767b82"/><rect x="650" y="20" width="50" height="50" rx="10" fill="#f4f7fb"/><rect x="650" y="80" width="50" height="50" rx="10" fill="#4a4f56"/><rect x="650" y="140" width="50" height="50" rx="10" fill="#4a4f56"/><rect x="650" y="200" width="50" height="50" rx="10" fill="#a8adb5"/><rect x="650" y="260" width="50" height="50" rx="10" fill="#767b82"/><rect x="650" y="320" width="50" height="50" rx="10" fill="#f4f7fb"/><rect x="650" y="380" width="50" height="50" rx="10" fill="#f4f7fb"/><rect x="650" y="440" width="50" height="50" rx="10" fill="#767b82"/><rect x="710" y="-40" width="50" height="50" rx="10" fill="#767b82"/><rect x="710" y="20" width="50" height="50" rx="10" fill="#a8adb5"/><rect x="710" y="80" width="50" height="50" rx="10" fill="#a8adb5"/><rect x="710" y="140" width="50" height="50" rx="10" fill="#f4f7fb"/><rect x="710" y="200" width="50" height="50" rx="10" fill="#767b82"/><rect x="710" y="260" width="50" height="50" rx="10" fill="#767b82"/><rect x="710" y="320" width="50" height="50" rx="10" fill="#4a4f56"/><rect x="710" y="380" width="50" height="50" rx="10" fill="#767b82"/><rect x="710" y="440" width="50" height="50" rx="10" fill="#f4f7fb"/><rect x="770" y="-40" width="50" height="50" rx="10" fill="#767b82"/><rect x="770" y="20" width="50" height="50" rx="10" fill="#f4f7fb"/><rect x="770" y="80" width="50" height="50" rx="10" fill="#f4f7fb"/><rect x="770" y="140" width="50" height="50" rx="10" fill="#f4f7fb"/><rect x="770" y="200" width="50" height="50" rx="10" fill="#f4f7fb"/><rect x="770" y="260" width="50" height="50" rx="10" fill="#4a4f56"/><rect x="770" y="320" width="50" height="50" rx="10" fill="#4a4f56"/><rect x="770" y="380" width="50" height="50" rx="10" fill="#a8adb5"/><rect x="770" y="440" width="50" height="50" rx="10" fill="#f4f7fb"/><rect x="830" y="-40" width="50" height="50" rx="10" fill="#a8adb5"/><rect x="830" y="20" width="50" height="50" rx="10" fill="#f4f7fb"/><rect x="830" y="380" width="50" height="50" rx="10" fill="#767b82"/><rect x="830" y="440" width="50" height="50" rx="10" fill="#767b82"/><rect x="890" y="-40" width="50" height="50" rx="10" fill="#4a4f56"/><rect x="890" y="20" width="50" height="50" rx="10" fill="#767b82"/><rect x="890" y="380" width="50" height="50" rx="10" fill="#4a4f56"/><rect x="890" y="440" width="50" height="50" rx="10" fill="#4a4f56"/><rect x="950" y="-40" width="50" height="50" rx="10" fill="#767b82"/><rect x="950" y="20" width="50" height="50" rx="10" fill="#767b82"/><rect x="950" y="380" width="50" height="50" rx="10" fill="#f4f7fb"/><rect x="950" y="440" width="50" height="50" rx="10" fill="#f4f7fb"/><rect x="1010" y="-40" width="50" height="50" rx="10" fill="#a8adb5"/><rect x="1010" y="20" width="50" height="50" rx="10" fill="#767b82"/><rect x="1010" y="380" width="50" height="50" rx="10" fill="#f4f7fb"/><rect x="1010" y="440" width="50" height="50" rx="10" fill="#a8adb5"/><rect x="1070" y="-40" width="50" height="50" rx="10" fill="#4a4f56"/><rect x="1070" y="20" width="50" height="50" rx="10" fill="#a8adb5"/><rect x="1070" y="380" width="50" height="50" rx="10" fill="#4a4f56"/><rect x="1070" y="440" width="50" height="50" rx="10" fill="#767b82"/><rect x="1130" y="-40" width="50" height="50" rx="10" fill="#a8adb5"/><rect x="1130" y="20" width="50" height="50" rx="10" fill="#a8adb5"/><rect x="1130" y="80" width="50" height="50" rx="10" fill="#767b82"/><rect x="1130" y="140" width="50" height="50" rx="10" fill="#a8adb5"/><rect x="1130" y="200" width="50" height="50" rx="10" fill="#f4f7fb"/><rect x="1130" y="260" width="50" height="50" rx="10" fill="#a8adb5"/><rect x="1130" y="320" width="50" height="50" rx="10" fill="#a8adb5"/><rect x="1130" y="380" width="50" height="50" rx="10" fill="#4a4f56"/><rect x="1130" y="440" width="50" height="50" rx="10" fill="#a8adb5"/><rect x="1190" y="-40" width="50" height="50" rx="10" fill="#767b82"/><rect x="1190" y="20" width="50" height="50" rx="10" fill="#4a4f56"/><rect x="1190" y="80" width="50" height="50" rx="10" fill="#4a4f56"/><rect x="1190" y="140" width="50" height="50" rx="10" fill="#4a4f56"/><rect x="1190" y="200" width="50" height="50" rx="10" fill="#f4f7fb"/><rect x="1190" y="260" width="50" height="50" rx="10" fill="#a8adb5"/><rect x="1190" y="320" width="50" height="50" rx="10" fill="#f4f7fb"/><rect x="1190" y="380" width="50" height="50" rx="10" fill="#a8adb5"/><rect x="1190" y="440" width="50" height="50" rx="10" fill="#4a4f56"/><rect x="1250" y="-40" width="50" height="50" rx="10" fill="#a8adb5"/><rect x="1250" y="20" width="50" height="50" rx="10" fill="#f4f7fb"/><rect x="1250" y="80" width="50" height="50" rx="10" fill="#f4f7fb"/><rect x="1250" y="140" width="50" height="50" rx="10" fill="#4a4f56"/><rect x="1250" y="200" width="50" height="50" rx="10" fill="#767b82"/><rect x="1250" y="260" width="50" height="50" rx="10" fill="#f4f7fb"/><rect x="1250" y="320" width="50" height="50" rx="10" fill="#a8adb5"/><rect x="1250" y="380" width="50" height="50" rx="10" fill="#767b82"/><rect x="1250" y="440" width="50" height="50" rx="10" fill="#767b82"/><rect x="1310" y="-40" width="50" height="50" rx="10" fill="#a8adb5"/><rect x="1310" y="20" width="50" height="50" rx="10" fill="#f4f7fb"/><rect x="1310" y="80" width="50" height="50" rx="10" fill="#767b82"/><rect x="1310" y="140" width="50" height="50" rx="10" fill="#a8adb5"/><rect x="1310" y="200" width="50" height="50" rx="10" fill="#767b82"/><rect x="1310" y="260" width="50" height="50" rx="10" fill="#a8adb5"/><rect x="1310" y="320" width="50" height="50" rx="10" fill="#f4f7fb"/><rect x="1310" y="380" width="50" height="50" rx="10" fill="#f4f7fb"/><rect x="1310" y="440" width="50" height="50" rx="10" fill="#f4f7fb"/><rect x="1370" y="-40" width="50" height="50" rx="10" fill="#4a4f56"/><rect x="1370" y="20" width="50" height="50" rx="10" fill="#767b82"/><rect x="1370" y="80" width="50" height="50" rx="10" fill="#f4f7fb"/><rect x="1370" y="140" width="50" height="50" rx="10" fill="#767b82"/><rect x="1370" y="200" width="50" height="50" rx="10" fill="#f4f7fb"/><rect x="1370" y="260" width="50" height="50" rx="10" fill="#f4f7fb"/><rect x="1370" y="320" width="50" height="50" rx="10" fill="#767b82"/><rect x="1370" y="380" width="50" height="50" rx="10" fill="#4a4f56"/><rect x="1370" y="440" width="50" height="50" rx="10" fill="#a8adb5"/><rect x="1430" y="-40" width="50" height="50" rx="10" fill="#a8adb5"/><rect x="1430" y="20" width="50" height="50" rx="10" fill="#f4f7fb"/><rect x="1430" y="80" width="50" height="50" rx="10" fill="#767b82"/><rect x="1430" y="140" width="50" height="50" rx="10" fill="#4a4f56"/><rect x="1430" y="200" width="50" height="50" rx="10" fill="#f4f7fb"/><rect x="1430" y="260" width="50" height="50" rx="10" fill="#4a4f56"/><rect x="1430" y="320" width="50" height="50" rx="10" fill="#f4f7fb"/><rect x="1430" y="380" width="50" height="50" rx="10" fill="#f4f7fb"/><rect x="1430" y="440" width="50" height="50" rx="10" fill="#767b82"/><rect x="1490" y="-40" width="50" height="50" rx="10" fill="#f4f7fb"/><rect x="1490" y="20" width="50" height="50" rx="10" fill="#4a4f56"/><rect x="1490" y="80" width="50" height="50" rx="10" fill="#a8adb5"/><rect x="1490" y="140" width="50" height="50" rx="10" fill="#4a4f56"/><rect x="1490" y="200" width="50" height="50" rx="10" fill="#f4f7fb"/><rect x="1490" y="260" width="50" height="50" rx="10" fill="#f4f7fb"/><rect x="1490" y="320" width="50" height="50" rx="10" fill="#a8adb5"/><rect x="1490" y="380" width="50" height="50" rx="10" fill="#a8adb5"/><rect x="1490" y="440" width="50" height="50" rx="10" fill="#767b82"/></g><g transform="translate(850 100) scale(2.5)"><rect x="64" y="16" width="20" height="68" rx="4" fill="#f4f7fb"/><rect x="40" y="64" width="44" height="20" rx="4" fill="#f4f7fb"/><rect x="16" y="64" width="20" height="20" rx="4" fill="#f4f7fb"/><rect x="16" y="40" width="20" height="20" rx="4" fill="#9c9ea2"/><rect x="40" y="16" width="20" height="20" rx="4" fill="#9c9ea2"/></g></svg>
